# xmcd CD database file
#
# Track frame offsets:
#	151
#	14340
#	29687
#	44786
#	60509
#	75604
#	90059
#	106566
#	123289
#	136830
#	151691
#	167436
#	184097
#	196112
#
# Disc length: 2797 seconds
#
# Revision: 1
# Processed by: cddbd v1.5.2PL0 Copyright (c) Steve Scherf et al.
# Submitted via: jetAudio 5
#
DISCID=9c0aeb0e
DTITLE=Unknown Artist - กล่อมทุ่ง1
DYEAR=1900
DGENRE=
TTITLE0=คิดถึงพี่ไหม
TTITLE1=พอหรือยัง
TTITLE2=อยากรู้ใจเธอ
TTITLE3=คนสวยใจดำ
TTITLE4=ลาสาวแม่กลอง
TTITLE5=หนาวลมที่เรณู
TTITLE6=ลานเทสะเทือน
TTITLE7=ไอ้หนุ่มตังเก
TTITLE8=เสียงขลุ่ยเรียกนาง
TTITLE9=คืนฝนตก
TTITLE10=บอกรักฝากใจ
TTITLE11=มนต์รักลูกทุ่ง
TTITLE12=บัวตูมบัวบาน
TTITLE13=พี่มีแต่ให้
EXTD=
EXTT0=
EXTT1=
EXTT2=
EXTT3=
EXTT4=
EXTT5=
EXTT6=
EXTT7=
EXTT8=
EXTT9=
EXTT10=
EXTT11=
EXTT12=
EXTT13=
PLAYORDER=
